<?xml version="1.0" ?><svg id="Layer_1" style="enable-background:new 0 0 512 512;" version="1.1" viewBox="0 0 512 512" xml:space="preserve" xmlns="http://www.w3.org/2000/svg" xmlns:xlink="http://www.w3.org/1999/xlink"><style type="text/css">
	.st0{fill:url(#SVGID_1_);}
	.st1{fill:#0073AA;}
</style><g><g><g><linearGradient gradientUnits="userSpaceOnUse" id="SVGID_1_" x1="359.8671" x2="152.1314" y1="435.9058" y2="76.0969"><stop offset="0" style="stop-color:#0073AA"/><stop offset="1" style="stop-color:#001655"/></linearGradient><path class="st0" d="M256,463.8c-114.6,0-207.8-93.2-207.8-207.8c0-114.6,93.2-207.8,207.8-207.8S463.8,141.4,463.8,256     C463.8,370.6,370.6,463.8,256,463.8z M141.4,189.6c8.3,22.7,61.2,167.6,64.2,175.9c2.4,6.6,8.6,11,15.5,11     c6.8,0,12.5-4.4,14.8-11.6c2.5-7.7,20-58.6,32-93.2l10.1,27.8c12.2,33.5,22.8,62.4,24.1,66c2.4,6.6,8.6,11,15.5,11     c6.8,0,12.5-4.4,14.8-11.6c1.7-5.2,7.1-20.5,13.8-39.9c8.5-24.4,20.2-57.7,30.8-88.5c10.3-31.2,9.2-62.1-2.9-78.9     c-5.8-8-13.7-12.3-22.7-12.3c-3.3,0-6.7,0.6-10.2,1.7c-5.7,1.8-12.7,7.8-15.7,17c-2.6,7.9-2.9,21.1,9.8,38.6     c19.3,26.6,8.1,57.1,8,57.4l-0.1,0.2l-14,46.4l-39.4-117.2c3.7-0.3,7.9-0.6,9-0.8c4.9-0.7,9.5-5.3,8.6-11.7     c-0.7-5.4-4.6-8.7-10.4-8.7c-0.3,0-0.6,0-1,0c-0.2,0-0.7,0-1.5,0.1c-4.5,0.3-18.3,1.2-31.8,1.2c-9.3,0-20-0.4-31.7-1.2     c-0.5,0-0.9-0.1-1-0.1c-0.3,0-0.7,0-1.1,0c-5.4,0-9.3,2.9-10.4,7.6l0,0.1c-0.6,3.2,0.1,6.3,1.8,8.8c1.6,2.1,3.9,3.5,6.6,3.8     c1.7,0.2,2,0.2,3.7,0.4c1.2,0.1,3.3,0.3,7.3,0.7c2.6,7.2,9.7,26.6,18.3,50.1l-23,68.2l-39.8-118.6c3.7-0.3,7.9-0.6,9-0.8     c4.9-0.7,9.5-5.3,8.7-11.7c-0.7-5.4-4.6-8.7-10.4-8.7c-0.3,0-0.6,0-1,0c-0.2,0-0.7,0-1.5,0.1c-4.5,0.3-18.3,1.2-31.9,1.2     c-9.3,0-20-0.4-31.7-1.2c-0.5,0-0.9-0.1-1-0.1c-0.3,0-0.7,0-1.1,0c-5.5,0-9.3,2.9-10.4,7.6l0,0.1c-0.6,3.2,0.1,6.4,1.9,8.8     c1.6,2.1,3.9,3.5,6.5,3.8c1.8,0.2,2,0.2,3.7,0.4C135.3,189,137.3,189.2,141.4,189.6z"/><path class="st1" d="M256,53.2c27.4,0,53.9,5.4,78.9,15.9c24.1,10.2,45.8,24.8,64.5,43.5c18.6,18.6,33.2,40.3,43.5,64.5     c10.6,25,15.9,51.5,15.9,78.9c0,27.4-5.4,53.9-15.9,78.9c-10.2,24.1-24.8,45.8-43.5,64.5c-18.6,18.6-40.3,33.2-64.5,43.5     c-25,10.6-51.5,15.9-78.9,15.9s-53.9-5.4-78.9-15.9c-24.1-10.2-45.8-24.8-64.5-43.5c-18.6-18.6-33.2-40.3-43.5-64.5     c-10.6-25-15.9-51.5-15.9-78.9c0-27.4,5.4-53.9,15.9-78.9c10.2-24.1,24.8-45.8,43.5-64.5c18.6-18.6,40.3-33.2,64.5-43.5     C202.1,58.6,228.6,53.2,256,53.2 M328.9,290.1l-32.4-96.3c1.2-0.1,2.2-0.2,2.8-0.3c7.4-1.1,14.3-7.8,13-17.3     c-1.1-7.9-7.1-13-15.3-13c-0.4,0-0.8,0-1.2,0v0c-0.3,0-0.8,0-1.6,0.1c-4.5,0.3-18.1,1.2-31.5,1.2c-9.2,0-19.7-0.4-31.4-1.2     c-0.6,0-0.9-0.1-1-0.1c-0.5,0-0.9,0-1.4,0c-7.6,0-12.1,3.9-14.2,8.4c-2.4-5.2-7.5-8.4-14-8.4c-0.4,0-0.8,0-1.2,0l0,0     c-0.3,0-0.8,0-1.6,0.1c-4.5,0.3-18.1,1.2-31.5,1.2c-9.2,0-19.7-0.4-31.4-1.2c-0.6,0-0.9-0.1-1-0.1c-0.5,0-1,0-1.4,0     c-9.4,0-14,6-15.3,11.6l0,0.1l0,0.1c-0.8,4.5,0.2,9.1,2.8,12.7c2.4,3.3,5.9,5.3,10,5.8c1.8,0.2,2.1,0.2,3.8,0.4     c0.9,0.1,2.1,0.2,4.1,0.4c11,30.2,60.2,164.9,63.1,172.9c3.1,8.5,11.2,14.3,20.2,14.3c9,0,16.5-5.8,19.5-15     c2.2-6.7,15.9-46.7,27.3-79.8l5.4,14.7c12.2,33.4,22.7,62.3,24,65.9c3.1,8.6,11.2,14.3,20.2,14.3c9,0,16.5-5.8,19.5-15     c1.7-5.1,7-20.4,13.8-39.8c8.5-24.4,20.3-57.8,30.8-88.5l0,0l0,0c11-33.1,9.6-65.1-3.6-83.4c-6.7-9.3-16.2-14.4-26.8-14.4     c-3.8,0-7.8,0.7-11.7,2c-6.9,2.2-15.4,9.4-18.9,20.2c-2.9,9-3.5,23.8,10.6,43.1c7.3,10,10.8,21.8,10.4,35     c-0.3,10.3-3,17.7-3,17.7l-0.1,0.3l-0.1,0.3L328.9,290.1 M214.6,185c0.4,1,1,1.9,1.6,2.7c2.4,3.3,6,5.3,10,5.8     c1.8,0.2,2.1,0.2,3.8,0.4c0.9,0.1,2.1,0.2,4.2,0.4c3.1,8.5,9.3,25.5,16.6,45.5l-17.7,52.5l-33.1-98.4c1.3-0.1,2.3-0.2,2.9-0.3     C207.7,192.8,212.3,189.7,214.6,185 M256,43.2C138.5,43.2,43.2,138.5,43.2,256c0,117.5,95.3,212.8,212.8,212.8     S468.8,373.5,468.8,256C468.8,138.5,373.5,43.2,256,43.2L256,43.2z M329.4,323.1l18.4-61.2c0,0,12.5-33.1-8.6-62.1     c-21.2-29-4.5-45.3,3.3-47.9c3-1,5.9-1.5,8.6-1.5c24.8,0,35.9,39.3,20.9,84.6c-18.8,55.1-40.8,116.5-44.6,128.4     c-1.8,5.7-5.9,8.1-10,8.1c-4.5,0-9-2.9-10.8-7.7c-1.8-5.1-21.7-59.6-39.1-107.1c-11.4,33.1-33.7,97.8-36.6,106.6     c-1.9,5.7-5.9,8.1-10,8.1c-4.5,0-9-2.9-10.8-7.7C207,354.7,145,184.9,145,184.9c-13-1.2-10.8-0.9-14.1-1.3     c-3.2-0.4-4.6-3.7-4.1-6.7c0.7-3.1,3.3-3.7,5.5-3.7c0.3,0,0.6,0,0.8,0c1.1,0.1,17,1.3,33,1.3c16.1,0,32.3-1.2,33.7-1.3     c0.2,0,0.5,0,0.7,0c2.5,0,5,0.8,5.4,4.4c0.5,3.9-2.6,5.8-4.5,6.1c-1.9,0.3-15,1.3-15,1.3l46.6,138.7l28.3-84     c-11.2-30.6-20-54.8-20-54.8c-13-1.2-10.8-0.9-14-1.3c-3.2-0.4-4.6-3.7-4.1-6.7c0.7-3.1,3.3-3.7,5.5-3.7c0.3,0,0.6,0,0.8,0     c1.1,0.1,17,1.3,33,1.3c16.1,0,32.3-1.2,33.7-1.3c0.2,0,0.5,0,0.7,0c2.5,0,5,0.8,5.4,4.4c0.5,3.9-2.6,5.8-4.5,6.1     c-1.9,0.3-15,1.3-15,1.3L329.4,323.1L329.4,323.1z"/></g></g></g></svg>