<svg viewBox="0 0 1024 1024" xml:space="preserve" xmlns="http://www.w3.org/2000/svg"><path d="M983.766 312.727c-25.785-60.972-62.694-115.728-109.705-162.744-47.011-47.017-101.762-83.934-162.732-109.726C648.194 13.548 581.14.004 512 0c-69.104 0-136.155 13.54-199.289 40.243-60.969 25.787-115.721 62.699-162.735 109.71-47.014 47.011-83.929 101.761-109.72 162.728C13.548 375.814.004 442.865 0 511.97c-.004 69.109 13.533 136.165 40.234 199.304 25.785 60.973 62.696 115.728 109.707 162.743 47.011 47.018 101.762 83.935 162.732 109.727 63.136 26.708 130.19 40.253 199.323 40.257h.009c69.104 0 136.153-13.54 199.288-40.243 60.969-25.787 115.72-62.699 162.733-109.709 47.013-47.01 83.929-101.76 109.72-162.728 26.708-63.134 40.251-130.186 40.255-199.29.003-69.11-13.534-136.165-40.235-199.304zM512.004 976.328h-.03c-124.026-.007-240.627-48.313-328.323-136.019-87.694-87.705-135.986-204.31-135.979-328.336.015-256.016 208.312-464.3 464.356-464.3 124.026.007 240.626 48.312 328.32 136.017 87.695 87.706 135.986 204.311 135.979 328.337-.014 256.016-208.309 464.301-464.323 464.301z" fill="#666060" class="fill-262626"></path><path d="M195.503 333.451h21.998s5.019-.809 8.405 5.609c1.128 2.139 2.386 5.082 3.734 9.125.167.499.352.993.528 1.489l.542 1.527.57 1.603.611 1.714.664 1.857a4610.58 4610.58 0 0 0 1.53 4.268l.885 2.459.975 2.703 1.07 2.962 1.168 3.229 1.269 3.503 1.37 3.778c.49 1.351.979 2.7 1.471 4.051a7478.31 7478.31 0 0 0 1.568 4.316l1.664 4.575 1.754 4.82 1.839 5.053 1.919 5.271 1.994 5.472 2.062 5.657 2.124 5.826 2.181 5.979 2.232 6.12 2.278 6.245 2.32 6.358 2.357 6.46 2.392 6.553 2.422 6.636 2.451 6.712 2.477 6.783 2.5 6.846 2.522 6.905 2.542 6.961 2.562 7.011 2.578 7.059c.865 2.364 1.729 4.731 2.594 7.099l2.608 7.135c.873 2.391 1.746 4.778 2.621 7.167.875 2.398 1.752 4.797 2.63 7.194l2.637 7.215 2.644 7.229c.883 2.412 1.765 4.823 2.646 7.235l2.646 7.239 2.646 7.232 2.641 7.22 2.633 7.199 2.624 7.172 2.611 7.137 2.595 7.094c.859 2.348 1.719 4.694 2.577 7.042l2.556 6.983c.845 2.306 1.688 4.61 2.531 6.916l2.503 6.841 2.473 6.755 2.438 6.662c.8 2.187 1.601 4.371 2.4 6.558l2.357 6.442 2.313 6.318 2.263 6.181 2.208 6.033c.717 1.957 1.434 3.915 2.149 5.873l2.087 5.701 2.02 5.518 1.949 5.324 1.875 5.121 1.796 4.908c.573 1.563 1.146 3.125 1.717 4.688.545 1.489 1.09 2.979 1.636 4.466l1.552 4.238 1.469 4.013 1.388 3.79c.438 1.191.872 2.382 1.31 3.573l1.232 3.366 1.162 3.172 1.098 2.994c.346.943.691 1.89 1.039 2.835l.988 2.697.947 2.588.917 2.501c1.119 3.051 2.269 6.097 3.694 9.021.411.843.84 1.679 1.303 2.494.372.655.756 1.336 1.264 1.896 1.248 1.381 4.088 3.068 7.446 3.211 6.94.291 14.95.079 14.95.079s5.802.616 9.754-8.074c3.883-8.538 91.99-269.231 91.99-269.231s4.087-13.834 8.894.315c.124.364.26.727.39 1.09.134.372.267.745.399 1.117l.42 1.171.449 1.25.487 1.353.532 1.478c.195.54.392 1.078.586 1.619l.646 1.774.708 1.944.774 2.122c.279.768.561 1.536.842 2.304.303.83.605 1.659.91 2.488.325.891.651 1.78.979 2.671l1.045 2.849 1.109 3.021 1.171 3.185c.409 1.113.818 2.227 1.229 3.339l1.282 3.482 1.332 3.614 1.377 3.733 1.418 3.844c.485 1.314.97 2.63 1.456 3.943l1.489 4.032 1.52 4.112c.517 1.396 1.031 2.791 1.547 4.187.524 1.418 1.049 2.835 1.572 4.253l1.595 4.314 1.617 4.371 1.636 4.426a3413.97 3413.97 0 0 1 1.655 4.475c.559 1.507 1.115 3.015 1.673 4.522l1.69 4.566 1.706 4.609 1.72 4.647 1.734 4.684 1.746 4.715 1.756 4.741 1.764 4.762 1.771 4.778c.591 1.596 1.183 3.191 1.773 4.787.592 1.597 1.186 3.192 1.777 4.79.592 1.595 1.184 3.189 1.774 4.785l1.773 4.775 1.767 4.757 1.76 4.734 1.749 4.705 1.735 4.67c.574 1.543 1.148 3.087 1.724 4.63.568 1.529 1.138 3.058 1.707 4.586l1.689 4.54 1.671 4.489a12377.01 12377.01 0 0 0 3.283 8.815l1.609 4.32 1.586 4.257 1.562 4.191 1.536 4.12 1.507 4.044c.492 1.319.984 2.641 1.478 3.961.479 1.29.961 2.58 1.441 3.871.47 1.257.938 2.514 1.406 3.771l1.366 3.663c.439 1.181.881 2.363 1.322 3.544.425 1.138.85 2.276 1.273 3.415l1.224 3.273c.389 1.041.777 2.081 1.168 3.121l1.107 2.959 1.046 2.786c.327.87.653 1.739.981 2.608.304.808.608 1.615.914 2.422.282.745.563 1.49.846 2.234l.778 2.044a799.315 799.315 0 0 0 1.355 3.535c.193.502.389 1.003.583 1.504l.526 1.345c.705 1.798 1.365 3.603 2.299 5.188.989 1.68 2.285 3.113 4.27 4.038 1.876.875 3.864 1.509 5.922 1.771 1.718.22 3.491.309 5.223.292 11.588-.108 13.385.426 18.326-11.701 4.94-12.128 109.866-319.448 109.866-319.448s14.553-42.582 17.787-70.609c2.605-22.585 4.748-45.546 1.956-68.222-2.583-20.981-11.224-44.771-26.639-59.897-7.795-7.649-18.509-11.763-29.119-13.595-5.25-.906-10.926-1.409-16.256-1.069-5.038.32-10.614 1.521-15.188 3.729-9.934 4.797-18.193 13.819-23.541 23.34-9.048 16.107-11.695 36.273-6.495 54.071 5.253 17.982 18.631 31.95 28.591 47.361 6.784 10.496 12.503 21.914 16.218 33.865 3.949 12.705 6.265 25.849 7.286 39.104.932 12.076 1.405 25.25-2.381 36.925l-47.589 167.82s-1.953 6.915-3.896 6.856c-1.946-.058-5.486-7.469-8.534-15.338-12.197-31.483-101.333-305.613-101.333-305.613s-4.717-9.567 10.914-9.702c15.632-.135 32.745-.181 32.564-13.476-.05-3.723-1.443-8.441-4.832-10.397-7.271-4.199-16.373-2.092-24.264-1.791-10.006.381-19.999 1.07-30.005 1.447-3.245.122-6.491.229-9.737.333-10.489.333-20.983.532-31.477.671-10.801.144-21.613.229-32.414.107-9.465-.106-18.913-.267-28.374-.556-3.767-.115-7.542-.1-11.294-.477-2.99-.301-5.879-.649-8.895-.455-7.184.461-10.261 6.943-9.517 13.633 1.437 12.937 15.271 11.499 27.489 11.679 12.217.18 16.17-2.336 19.942 8.624 3.773 10.96 43.838 118.938 43.838 118.938s1.617 8.266.449 12.847c-1.167 4.582-61.536 181.016-61.536 181.016s-6.019 26.59-13.835-3.324C418.56 611.037 321.63 328.78 321.63 328.78s-3.233-5.93 8.983-6.108c12.217-.18 21.38-1.797 21.381-1.797 2.868-.506 5.911-1.931 8.429-3.339 4.385-2.453 6.827-7.774 6.276-12.681-1.407-12.528-21.873-8.979-29.978-7.876-7.688 1.046-15.485 1.368-23.229 1.734-11.15.526-22.312.813-33.471 1.068-12.065.277-24.138.474-36.206.552-10.556.068-21.112.179-31.668.183-11.637.005-30.802-4.402-32.542 12.317-.643 6.168.772 12.778 5.667 16.998 2.649 2.282 6.736 3.62 10.231 3.62z" fill="#666060" class="fill-262626"></path></svg>