<svg viewBox="0 0 512 512" xml:space="preserve" xmlns="http://www.w3.org/2000/svg" enable-background="new 0 0 512 512"><path d="M256 46.531c-115.982 0-210 93.784-210 209.466 0 115.689 94.018 209.472 210 209.472 115.975 0 210-93.783 210-209.472 0-115.682-94.025-209.466-210-209.466zm55.307 162.291-3.004 37.589h-40.066v130.597h-50.608V246.411h-27.01v-37.589h27.01v-25.263c0-11.114.293-28.297 8.697-38.937 8.855-11.25 21.016-18.9 41.912-18.9 34.057 0 48.417 4.661 48.417 4.661l-6.755 38.5s-11.249-3.132-21.754-3.132c-10.504 0-19.908 3.607-19.908 13.719v29.352h43.069z" fill-rule="evenodd" clip-rule="evenodd" fill="#666060" class="fill-000000"></path></svg>