<svg viewBox="0 0 256 256" xml:space="preserve" xmlns="http://www.w3.org/2000/svg" enable-background="new 0 0 256 256"><path d="M98.3 51.5h5.4c2 9.6 9.6 17.2 19.2 19.2V76c0 2.8 2.3 5.1 5.1 5.1s5.1-2.3 5.1-5.1v-5.4c9.6-2 17.2-9.6 19.2-19.2h5.4c2.8 0 5.1-2.3 5.1-5.1s-2.3-5.1-5.1-5.1h-5.4c-2-9.6-9.6-17.2-19.2-19.2v-5.4c0-2.8-2.3-5.1-5.1-5.1s-5.1 2.3-5.1 5.1V22c-9.6 2-17.2 9.6-19.2 19.2h-5.4c-2.8 0-5.1 2.3-5.1 5.1s2.3 5.2 5.1 5.2zM128 31.7c8.1 0 14.6 6.6 14.6 14.6 0 8.1-6.6 14.6-14.6 14.6-8.1 0-14.6-6.5-14.6-14.6v-.2c0-7.8 6.5-14.4 14.6-14.4zM74 167.6c-2.1.5-3.7 2.4-3.8 4.6l-3.8 58c-.1 2.2-2 4-4.3 4H33.3c-2.2 0-4.1-1.7-4.3-4l-3.8-58c-.1-2.1-1.6-3.9-3.6-4.5-1.1-.3-4.3-1.3-4.8-1.9-.4-.6-.6-3.8-.7-5.6l-3.5-61.5c5-1.5 13.1-4.1 17.4-5.4l14.2 13.3c2 1.8 5 1.8 6.9 0l14.2-13.3c1.3.4 3.1 1 5 1.6 2.7.9 5.5-.6 6.4-3.3.8-2.7-.6-5.5-3.3-6.4-4.3-1.4-7.8-2.5-7.8-2.5-1.8-.6-3.7-.1-5 1.1L47.7 95.9l-12.9-12c-1.3-1.3-3.3-1.7-5-1.1 0 0-13.6 4.4-20.5 6.4-4.3 1.3-6.9 4.7-6.9 9.1v1.1L5.9 160s0 .9.1 1.1c.6 8.9 1.9 12.2 9.3 15.1l3.6 54.6c.5 7.6 6.8 13.5 14.4 13.5h28.8c7.6 0 13.9-5.9 14.4-13.5l3.7-56.6c.4-1 .4-2.1.1-3.3-.8-2.5-3.7-4-6.3-3.3zM47.7 74.7c13.7 0 24.8-11.1 24.8-24.8S61.4 25.1 47.7 25.1c-13.7 0-24.8 11.1-24.8 24.8S34 74.7 47.7 74.7zm0-39.5c8.1 0 14.6 6.6 14.6 14.6s-6.6 14.6-14.6 14.6c-8.1 0-14.6-6.6-14.6-14.6s6.5-14.6 14.6-14.6zM166.4 89.2c-6.9-2.1-20.5-6.4-20.5-6.4-1.8-.6-3.7-.1-5 1.1L128 96l-12.9-12.1c-1.3-1.3-3.3-1.7-5-1.1 0 0-13.6 4.4-20.5 6.4-4.4 1.3-6.8 4.6-6.8 9.1l3.4 61.8.1 1c.6 8.9 1.9 12.3 9.3 15.1l3.6 54.6c.5 7.6 6.8 13.5 14.4 13.5h28.8c7.6 0 13.9-5.9 14.4-13.5l3.6-54.6c7.4-2.9 8.7-6.2 9.3-15.1l3.5-61.9v-.9c.1-4.5-2.4-7.8-6.8-9.1zm-6.7 70.2-.1 1c-.1 1.5-.3 4.8-.7 5.4-.5.6-3.8 1.5-4.8 1.9-2 .6-3.4 2.4-3.6 4.5l-3.8 58c-.1 2.2-2 4-4.3 4h-28.8c-2.2 0-4.1-1.8-4.3-4l-3.8-58c-.1-2.1-1.6-3.9-3.6-4.5-1.1-.3-4.3-1.3-4.8-1.9-.4-.6-.6-3.8-.7-5.4L92.9 99v-.3c5-1.5 13.1-4.1 17.4-5.5l14.2 13.3c2 1.8 5 1.8 6.9 0l14.2-13.3c4.3 1.4 12.4 3.9 17.4 5.5l-3.3 60.7zM246.7 89.2c-6.9-2.1-20.5-6.4-20.5-6.4-1.7-.6-3.7-.1-5 1.1L208.3 96l-12.9-12.1c-1.3-1.3-3.3-1.7-5-1.1 0 0-3.5 1.1-7.8 2.5-2.7.8-4.2 3.7-3.3 6.4.8 2.7 3.7 4.2 6.4 3.3 1.9-.6 3.6-1.1 5-1.6l14.2 13.3c2 1.8 5 1.8 6.9 0L226 93.3c4.2 1.4 12.3 3.9 17.4 5.5l-3.4 60.7-.1 1c-.1 1.6-.3 4.8-.7 5.4-.5.6-3.8 1.6-4.8 1.9-2 .6-3.4 2.4-3.6 4.5l-3.8 58c-.2 2.3-2 4-4.3 4h-28.9c-2.2 0-4.1-1.8-4.2-4l-3.8-58c-.1-2-1.8-3.9-3.7-4.6-2.6-.9-5.4.6-6.3 3.2-.3 1-.3 2 0 3l3.8 57c.5 7.6 6.8 13.5 14.4 13.5h28.9c7.5 0 13.9-5.9 14.4-13.5l3.6-54.6c7.4-2.9 8.7-6.2 9.3-14.9 0-.4.1-1.3.1-1.3l3.4-60.9v-.8c-.2-4.5-2.7-7.9-7-9.2zM208.3 74.7c13.7 0 24.8-11.1 24.8-24.8S222 25.1 208.3 25.1c-13.7 0-24.8 11.1-24.8 24.8s11.1 24.8 24.8 24.8zm0-39.5c8.1 0 14.6 6.6 14.6 14.6s-6.6 14.6-14.6 14.6c-8.1 0-14.6-6.6-14.6-14.6s6.5-14.6 14.6-14.6z" fill="#666060" class="fill-000000"></path></svg>