<svg viewBox="0 0 40 40" xmlns="http://www.w3.org/2000/svg"><path d="M5.75 27.18q.13-.21.42 0a27.73 27.73 0 0 0 14.14 3.77A27.86 27.86 0 0 0 30.37 29l.38-.15.35-.16a.46.46 0 0 1 .61.16c.15.2.1.39-.14.57s-.71.48-1.2.78a19.37 19.37 0 0 1-5 2.05 20.94 20.94 0 0 1-19.51-4.66.33.33 0 0 1-.16-.26.3.3 0 0 1 .05-.15Zm7.83-7.41a5.24 5.24 0 0 1 .88-3.07 5.53 5.53 0 0 1 2.42-1.93 13.36 13.36 0 0 1 3.46-.85c.47-.06 1.23-.13 2.29-.21v-.44a4.66 4.66 0 0 0-.37-2.27 1.93 1.93 0 0 0-1.71-.78h-.21a2.75 2.75 0 0 0-1.48.55 2.09 2.09 0 0 0-.81 1.3.65.65 0 0 1-.52.59l-3-.36c-.29-.07-.44-.23-.44-.47a1.41 1.41 0 0 1 0-.18 5 5 0 0 1 2.21-3.4 8.13 8.13 0 0 1 4-1.25h.7a6.6 6.6 0 0 1 4.63 1.53 6.44 6.44 0 0 1 .48.56c.14.2.26.38.35.54a3 3 0 0 1 .23.67c.07.3.12.5.16.61a4.53 4.53 0 0 1 .08.73v6.96a3.69 3.69 0 0 0 .2 1.23 3.5 3.5 0 0 0 .37.81c.13.16.32.43.6.79a.74.74 0 0 1 .16.42.45.45 0 0 1-.21.36l-2.34 2a.73.73 0 0 1-.75.05 7.69 7.69 0 0 1-.64-.6l-.39-.41c-.08-.09-.2-.26-.38-.51l-.36-.51a6.4 6.4 0 0 1-2.86 2 8 8 0 0 1-2.19.26 4.55 4.55 0 0 1-3.29-1.24 4.64 4.64 0 0 1-1.27-3.48Zm4.47-.52a2.46 2.46 0 0 0 .51 1.62 1.67 1.67 0 0 0 1.36.61H20.34A2.65 2.65 0 0 0 22 20a4.28 4.28 0 0 0 .46-1 5.47 5.47 0 0 0 .15-.95V16.2a9.38 9.38 0 0 0-2.29.21 2.79 2.79 0 0 0-2.27 2.84ZM29 27.62a.73.73 0 0 1 .16-.21 4.38 4.38 0 0 1 1.24-.6 8.26 8.26 0 0 1 1.93-.28 1.59 1.59 0 0 1 .49 0 2.39 2.39 0 0 1 1.41.39.86.86 0 0 1 .1.47v.18a5.94 5.94 0 0 1-.49 2.15 5.08 5.08 0 0 1-1.38 2 .4.4 0 0 1-.24.1.19.19 0 0 1-.1 0c-.1-.05-.13-.14-.08-.28a10 10 0 0 0 1-3.15.63.63 0 0 0-.1-.41c-.17-.21-.66-.32-1.46-.32-.29 0-.64 0-1 .06l-1.19.15a.32.32 0 0 1-.29-.07.1.1 0 0 1 0-.1.16.16 0 0 1 0-.08Z" fill="#666060" class="fill-000000"></path></svg>